:FULLY-SPECIFIED
:FORCE-ALL-JOINTS-BE-3DOF
:DEGREES
1
root 6.24314 16.836 -28.1378 9.0217 -2.52979 -3.05774
lfemur -20.3712 2.30257 -19.9954
ltibia 35.927 0 0
lfoot -38.654 3.93715 0
ltoes 38.9541 0 0
rfemur -19.4747 0.22019 19.5256
rtibia 36.0342 0 0
rfoot -30.3779 -10.4967 0
rtoes 21.4483 0 0
lowerback -2.05144 3.66971 -5.03766
upperback -2.66728 5.00355 3.49279
thorax -2.36397 2.67023 6.42441
lowerneck -9.84699 -2.36864 1.94815
upperneck -1.37933 -3.32542 -1.65382
head 1.16433 -1.69823 -0.975663
lclavicle -1.65488e-14 -3.69739e-14 0
lhumerus -41.7253 -10.8128 99.8312
lradius 34.5094 0 0
lwrist 2.17521 0 0
lhand -10.5949 9.65639 0
lfingers 7.12502 0 0
lthumb 15.4107 39.062 0
rclavicle -1.65488e-14 -3.69739e-14 0
rhumerus -43.273 -4.86223 -84.2703
rradius 40.4763 0 0
rwrist 9.89469 0 0
rhand -23.7965 -22.476 0
rfingers 7.12502 0 0
rthumb 2.67393 -52.439 0
2
root 6.23986 16.8415 -28.1214 9.10637 -2.72612 -2.90619
lfemur -20.2393 2.30064 -20.181
ltibia 35.6943 -0 0
lfoot -38.627 4.08266 6.86531e-05
ltoes 38.8958 -0 0
rfemur -19.3193 0.281296 19.3434
rtibia 35.6674 -0 0
rfoot -30.4349 -10.4878 -8.8209e-06
rtoes 21.6752 -0 0
lowerback -2.35909 3.67391 -4.99902
upperback -2.6512 5.01747 3.35264
thorax -2.15973 2.66678 6.2783
lowerneck -9.84029 -2.34024 1.97093
upperneck -1.39185 -3.2916 -1.57275
head 1.16053 -1.67968 -0.952426
lclavicle -4.74019e-14 -3.90943e-14 -1.14181e-30
lhumerus -41.8167 -10.7044 99.6115
lradius 34.5812 -0 0
lwrist 2.28498 0 0
lhand -10.9411 7.50363 0.0130122
lfingers 7.12502 -0 0
lthumb 15.0772 36.9339 0.0123922
rclavicle -4.74019e-14 -3.90943e-14 -1.14181e-30
rhumerus -43.4841 -4.71982 -84.5175
rradius 40.7524 -0 0
rwrist 9.88171 0 0
rhand -23.8607 -22.4454 -3.42873e-05
rfingers 7.12502 -0 0
rthumb 2.61193 -52.4092 -3.22845e-05
3
root 6.23657 16.847 -28.105 9.19053 -2.92268 -2.75491
lfemur -20.1075 2.29913 -20.3666
ltibia 35.4616 -0 0
lfoot -38.5999 4.22816 6.86531e-05
ltoes 38.8374 -0 0
rfemur -19.1642 0.342895 19.1614
rtibia 35.3006 -0 0
rfoot -30.4919 -10.479 -8.8209e-06
rtoes 21.9021 -0 0
lowerback -2.66674 3.67832 -4.9604
upperback -2.63515 5.03144 3.21249
thorax -1.95549 2.66384 6.13219
lowerneck -9.83358 -2.31184 1.99371
upperneck -1.40433 -3.25777 -1.4917
head 1.15673 -1.66113 -0.92919
lclavicle -7.82549e-14 -4.12147e-14 -1.14181e-30
lhumerus -41.9086 -10.5963 99.3917
lradius 34.6529 -0 0
lwrist 2.39475 0 0
lhand -11.2874 5.35082 0.0130122
lfingers 7.12502 -0 0
lthumb 14.7435 34.8059 0.0123922
rclavicle -7.82549e-14 -4.12147e-14 -1.14181e-30
rhumerus -43.6957 -4.57832 -84.7652
rradius 41.0286 -0 0
rwrist 9.86873 0 0
rhand -23.9249 -22.4148 -3.42873e-05
rfingers 7.12502 -0 0
rthumb 2.54992 -52.3793 -3.22845e-05
4
root 6.23329 16.8525 -28.0886 9.27418 -3.11946 -2.60389
lfemur -19.9756 2.29805 -20.5522
ltibia 35.2289 0 0
lfoot -38.5729 4.37367 0
ltoes 38.7791 0 0
rfemur -19.0092 0.404986 18.9796
rtibia 34.9338 0 0
rfoot -30.5489 -10.4701 0
rtoes 22.129 0 0
lowerback -2.97438 3.68294 -4.9218
upperback -2.61913 5.04544 3.07234
thorax -1.75124 2.66143 5.98606
lowerneck -9.82686 -2.28344 2.0165
upperneck -1.41675 -3.22392 -1.41065
head 1.15294 -1.64258 -0.905956
lclavicle -1.09108e-13 -4.33351e-14 0
lhumerus -42.0008 -10.4886 99.1718
lradius 34.7247 0 0
lwrist 2.50452 0 0
lhand -11.6336 3.19806 0
lfingers 7.12502 0 0
lthumb 14.41 32.6778 0
rclavicle -1.09108e-13 -4.33351e-14 0
rhumerus -43.9079 -4.43773 -85.0134
rradius 41.3047 0 0
rwrist 9.85575 0 0
rhand -23.9891 -22.3842 0
rfingers 7.12502 0 0
rthumb 2.48792 -52.3495 0
5
root 6.24471 16.8498 -28.075 9.11932 -3.02711 -2.52754
lfemur -19.872 2.38369 -20.5678
ltibia 35.2369 -0 0
lfoot -38.4193 4.24165 -0.0239809
ltoes 38.7243 -0 0
rfemur -19.5323 0.0495946 19.0827
rtibia 35.3828 -0 0
rfoot -30.1845 -10.2087 0.122704
rtoes 21.691 -0 0
lowerback -2.82415 3.62283 -4.94273
upperback -2.56056 4.95691 3.03955
thorax -1.75969 2.61753 5.97103
lowerneck -9.84646 -2.27099 1.99675
upperneck -1.4046 -3.20645 -1.37343
head 1.16125 -1.63283 -0.89014
lclavicle -1.08267e-13 -4.28901e-14 -4.34183e-31
lhumerus -41.9999 -10.5866 99.1066
lradius 34.8613 -0 0
lwrist 2.62171 0 0
lhand -11.4699 3.22673 0.00551698
lfingers 7.12502 -0 0
lthumb 14.5668 32.6842 0.00117341
rclavicle -1.08267e-13 -4.28901e-14 -4.34183e-31
rhumerus -43.8765 -4.61134 -84.8201
rradius 41.6168 -0 0
rwrist 9.48296 0 0
rhand -24.0286 -22.4179 0.0015477
rfingers 7.12502 -0 0
rthumb 2.44974 -52.3832 0.00149418
